<svg width="18" height="11" viewBox="0 0 18 11" fill="none" xmlns="http://www.w3.org/2000/svg">
<path d="M5.55337 8.128V10H4.35737V8.128H0.132366V7.218L4.25337 1.108H5.55337V7.01H6.69737V8.128H5.55337ZM1.48437 7.01H4.35737V2.863H4.30537L1.48437 7.01ZM12.1296 3.123C12.1296 3.72967 11.9086 4.254 11.4666 4.696C11.0333 5.12933 10.5133 5.346 9.90664 5.346C9.30864 5.346 8.78431 5.12933 8.33364 4.696C7.90031 4.24533 7.68364 3.721 7.68364 3.123C7.68364 2.51633 7.90031 1.99633 8.33364 1.563C8.77564 1.121 9.29997 0.899999 9.90664 0.899999C10.5133 0.899999 11.0333 1.121 11.4666 1.563C11.9086 1.99633 12.1296 2.51633 12.1296 3.123ZM15.8086 1.498L10.0366 10.104L9.29564 9.623L15.0806 1.004L15.8086 1.498ZM11.1676 3.123C11.1676 2.733 11.0463 2.41233 10.8036 2.161C10.5696 1.901 10.2706 1.771 9.90664 1.771C9.55131 1.771 9.25231 1.901 9.00964 2.161C8.76697 2.41233 8.64564 2.733 8.64564 3.123C8.64564 3.513 8.76697 3.83367 9.00964 4.085C9.25231 4.345 9.55131 4.475 9.90664 4.475C10.2706 4.475 10.5696 4.34933 10.8036 4.098C11.0463 3.838 11.1676 3.513 11.1676 3.123ZM17.4336 7.985C17.4336 8.59167 17.2126 9.116 16.7706 9.558C16.3373 9.99133 15.8173 10.208 15.2106 10.208C14.6126 10.208 14.0883 9.99133 13.6376 9.558C13.2043 9.10733 12.9876 8.583 12.9876 7.985C12.9876 7.37833 13.2043 6.85833 13.6376 6.425C14.0796 5.983 14.604 5.762 15.2106 5.762C15.8173 5.762 16.3373 5.983 16.7706 6.425C17.2126 6.85833 17.4336 7.37833 17.4336 7.985ZM16.4716 7.985C16.4716 7.595 16.3503 7.27433 16.1076 7.023C15.8736 6.763 15.5746 6.633 15.2106 6.633C14.8553 6.633 14.5563 6.763 14.3136 7.023C14.071 7.27433 13.9496 7.595 13.9496 7.985C13.9496 8.375 14.071 8.69567 14.3136 8.947C14.5563 9.207 14.8553 9.337 15.2106 9.337C15.5746 9.337 15.8736 9.21133 16.1076 8.96C16.3503 8.7 16.4716 8.375 16.4716 7.985Z" fill="#32333D"/>
</svg>
