<svg width="39" height="37" viewBox="0 0 39 37" fill="none" xmlns="http://www.w3.org/2000/svg">
<path fill-rule="evenodd" clip-rule="evenodd" d="M20.515 0.125741C18.6751 0.459714 17.0196 1.34425 15.6741 2.71219C12.9593 5.47236 12.2423 9.521 13.83 13.1257C14.6663 15.0244 16.526 16.8769 18.4441 17.722C21.4089 19.0283 24.957 18.6321 27.4549 16.716L28.0573 16.2538L28.4905 16.6943L28.9236 17.1346L28.7538 17.5884C28.6246 17.9335 28.5908 18.1805 28.6126 18.6204C28.6631 19.6403 28.7894 19.8143 31.3784 22.4299C33.4809 24.5542 33.7175 24.7677 34.1476 24.9288C35.9442 25.6016 37.779 24.2577 37.6853 22.3376C37.6356 21.318 37.5095 21.1442 34.92 18.528C32.8176 16.4037 32.5809 16.1903 32.1508 16.0292C31.5493 15.8039 30.8517 15.7997 30.2866 16.018L29.8598 16.1829L29.4266 15.7425L28.9934 15.3021L29.448 14.6896C31.6669 11.6997 31.7749 7.33593 29.7081 4.17942C27.9589 1.50822 25.1371 -0.0265002 22.0241 0.000346434C21.5516 0.00439408 20.8725 0.0608135 20.515 0.125741ZM23.0625 1.40059C24.7742 1.61875 26.3571 2.40985 27.5895 3.66289C30.6353 6.75943 30.6353 11.7299 27.5895 14.8265C24.5438 17.9231 19.6549 17.9231 16.6092 14.8265C12.4669 10.6151 14.2169 3.46761 19.825 1.69218C20.9389 1.33962 21.9029 1.25272 23.0625 1.40059ZM3.77593 8.07756C3.35871 8.27027 2.94118 8.69478 2.75162 9.11896C2.61025 9.43525 2.6031 9.97425 2.60139 20.3794L2.59961 31.3078L2.79907 31.5105C3.06289 31.7788 3.43631 31.7788 3.70012 31.5105L3.89959 31.3078V20.5693C3.89959 12.8751 3.92518 9.7736 3.98978 9.62938C4.03942 9.51869 4.16909 9.38685 4.27797 9.33638C4.41308 9.27384 5.56056 9.24468 7.88834 9.24468H11.3006L11.5 9.04189C11.7639 8.77367 11.7639 8.39402 11.5 8.1258L11.3006 7.923L7.70163 7.92482C4.39188 7.92647 4.07647 7.93878 3.77593 8.07756ZM32.6987 8.1258C32.5729 8.25359 32.4992 8.42293 32.4992 8.58384C32.4992 8.74476 32.5729 8.9141 32.6987 9.04189C32.8838 9.23015 32.9562 9.24468 33.7104 9.24468C34.6015 9.24468 34.8726 9.32498 35.009 9.62938C35.0705 9.76675 35.0992 10.9334 35.0992 13.3V16.7693L35.2987 16.972C35.4243 17.0999 35.5909 17.1748 35.7492 17.1748C35.9075 17.1748 36.074 17.0999 36.1997 16.972L36.3992 16.7693L36.3974 13.1102C36.3954 9.03222 36.4034 9.09649 35.8242 8.5076C35.3494 8.02494 35.0252 7.92689 33.8971 7.92482C32.9436 7.92309 32.889 7.93225 32.6987 8.1258ZM27.4988 8.78664C27.0957 9.19636 27.3813 9.90553 27.9493 9.90553C28.2833 9.90553 28.5993 9.58427 28.5993 9.24468C28.5993 8.90509 28.2833 8.58384 27.9493 8.58384C27.791 8.58384 27.6244 8.65877 27.4988 8.78664ZM27.1463 10.9489C27.0422 11.023 26.9023 11.2181 26.8353 11.3826C26.6409 11.8595 26.0286 12.7506 25.6667 13.083C24.7829 13.8948 23.6663 14.3873 22.4577 14.4987C21.9512 14.5454 21.7851 14.5956 21.6361 14.7471C21.3803 15.0071 21.3904 15.3876 21.6603 15.662C21.864 15.8691 21.8955 15.8748 22.5743 15.8272C24.3423 15.7032 26.0309 14.818 27.1381 13.4348C27.5741 12.8902 28.193 11.7309 28.193 11.4591C28.193 11.2346 27.7587 10.8142 27.5267 10.8142C27.4216 10.8142 27.2503 10.8748 27.1463 10.9489ZM9.29899 17.3776L9.09952 17.5803V24.444V31.3078L9.29899 31.5105C9.49675 31.7116 9.51097 31.7133 11.0495 31.7133C12.588 31.7133 12.6022 31.7116 12.8 31.5105L12.9995 31.3078V24.444V17.5803L12.8 17.3776C12.6022 17.1764 12.588 17.1748 11.0495 17.1748C9.51097 17.1748 9.49675 17.1764 9.29899 17.3776ZM31.7274 17.3327C31.9367 17.4321 32.7942 18.2472 34.1372 19.6232C35.8848 21.4137 36.2385 21.8162 36.3234 22.1104C36.6007 23.0701 35.6977 23.988 34.7539 23.7063C34.4636 23.6196 34.0685 23.259 32.2754 21.4438C30.0114 19.1521 29.8217 18.899 29.9305 18.3141C30.0127 17.8716 30.281 17.5084 30.6525 17.337C31.083 17.1383 31.316 17.1374 31.7274 17.3327ZM11.6995 24.444V30.3916H11.0495H10.3995V24.444V18.4965H11.0495H11.6995V24.444ZM14.4989 20.0209L14.2995 20.2236V25.7657V31.3078L14.4989 31.5105C14.6967 31.7116 14.7109 31.7133 16.2494 31.7133C17.788 31.7133 17.8022 31.7116 17.9999 31.5105L18.1994 31.3078V25.7657V20.2236L17.9999 20.0209C17.8022 19.8198 17.788 19.8181 16.2494 19.8181C14.7109 19.8181 14.6967 19.8198 14.4989 20.0209ZM16.8994 25.7657V30.3916H16.2494H15.5994V25.7657V21.1398H16.2494H16.8994V25.7657ZM19.6989 22.6643L19.4994 22.867V27.0874V31.3078L19.6989 31.5105C19.8966 31.7116 19.9108 31.7133 21.4494 31.7133C22.9879 31.7133 23.0021 31.7116 23.1999 31.5105L23.3993 31.3078V27.0874V22.867L23.1999 22.6643C23.0021 22.4632 22.9879 22.4615 21.4494 22.4615C19.9108 22.4615 19.8966 22.4632 19.6989 22.6643ZM22.0994 27.0874V30.3916H21.4494H20.7994V27.0874V23.7832H21.4494H22.0994V27.0874ZM24.8988 25.3077L24.6993 25.5104V28.4091V31.3078L24.8988 31.5105C25.0965 31.7116 25.1108 31.7133 26.6493 31.7133C28.1878 31.7133 28.202 31.7116 28.3998 31.5105L28.5993 31.3078V28.4091V25.5104L28.3998 25.3077C28.202 25.1065 28.1878 25.1049 26.6493 25.1049C25.1108 25.1049 25.0965 25.1065 24.8988 25.3077ZM27.2993 28.4091V30.3916H26.6493H25.9993V28.4091V26.4265H26.6493H27.2993V28.4091ZM35.2987 26.6293L35.0992 26.8321V29.0699V31.3078L35.2987 31.5105C35.4243 31.6384 35.5909 31.7133 35.7492 31.7133C35.9075 31.7133 36.074 31.6384 36.1997 31.5105L36.3992 31.3078V29.0699V26.8321L36.1997 26.6293C36.074 26.5015 35.9075 26.4265 35.7492 26.4265C35.5909 26.4265 35.4243 26.5015 35.2987 26.6293ZM0.199105 33.2377C-0.053173 33.4942 -0.0654416 33.962 0.160755 34.699C0.460564 35.6754 1.30247 36.5314 2.26283 36.8362C2.77072 36.9973 3.0533 37 19.4932 37C34.5555 37 36.2508 36.9869 36.6484 36.8682C37.7191 36.5485 38.5578 35.6961 38.8701 34.6101C39.0641 33.9355 39.0409 33.4829 38.7997 33.2377L38.6003 33.035H31.1992H23.7982L23.5988 33.2377C23.3349 33.506 23.3349 33.8856 23.5988 34.1538L23.7982 34.3566H30.6675C34.4455 34.3566 37.5367 34.377 37.5367 34.4021C37.5367 34.6633 37.0224 35.2336 36.5617 35.483C36.2869 35.6318 35.7139 35.637 19.4994 35.637C3.28486 35.637 2.71189 35.6318 2.43711 35.483C1.97643 35.2336 1.46212 34.6633 1.46212 34.4021C1.46212 34.377 4.55324 34.3566 8.33131 34.3566H15.2006L15.4 34.1538C15.6639 33.8856 15.6639 33.506 15.4 33.2377L15.2006 33.035H7.79954H0.39849L0.199105 33.2377Z" fill="#EDC09D"/>
</svg>
