<svg width="14" height="11" viewBox="0 0 14 11" fill="none" xmlns="http://www.w3.org/2000/svg">
<path id="image 6 (Traced)" fill-rule="evenodd" clip-rule="evenodd" d="M12.4964 0.135331C12.2557 0.212165 9.45064 1.19939 6.26284 2.32911C0.840471 4.25077 0.451737 4.39652 0.233306 4.59018C0.0358769 4.76516 -0.000163513 4.82789 5.56189e-07 4.99617C0.000438073 5.46164 0.298606 5.64419 1.61351 5.98416L2.43424 6.19634L6.51299 4.26209C8.75625 3.19824 10.6529 2.32784 10.7278 2.32784C10.9046 2.32784 11.1018 2.52495 11.1018 2.70161C11.1018 2.85106 11.1993 2.75023 8.15045 5.7534C7.30036 6.59076 6.57194 7.32154 6.53175 7.37737C6.49155 7.43319 6.44277 7.57143 6.4233 7.6846L6.38791 7.89029L8.28127 9.30857C9.32261 10.0886 10.3033 10.7916 10.4604 10.8708C10.703 10.9931 10.794 11.0118 11.0615 10.9945C11.4203 10.9712 11.5956 10.8735 11.8299 10.5662C11.9697 10.3828 12.0754 9.94486 12.9917 5.74985C13.546 3.21179 13.9998 1.03745 14 0.917931C14.0006 0.515695 13.7437 0.173291 13.3496 0.0510366C13.0846 -0.0311769 12.9875 -0.0215853 12.4964 0.135331ZM6.01564 5.32462C4.5568 6.01856 3.35608 6.6175 3.34739 6.65556C3.32923 6.73524 4.50145 9.87128 4.65447 10.1524C4.71042 10.2552 4.78004 10.3529 4.80913 10.3696C4.87049 10.4049 4.85545 10.4542 5.35707 8.56997C5.56888 7.77448 5.76062 7.08561 5.78321 7.03918C5.80574 6.99274 6.36544 6.42182 7.02696 5.77045C8.75559 4.06828 8.77085 4.05285 8.71704 4.05808C8.69013 4.06067 7.47449 4.63063 6.01564 5.32462ZM5.8857 9.66011C5.74662 10.176 5.63281 10.6213 5.63281 10.6497C5.63281 10.7242 5.82445 10.7133 6.04966 10.626C6.26721 10.5416 6.4117 10.4355 6.98835 9.93613L7.38687 9.59109L6.80487 9.15668C6.48482 8.9177 6.20394 8.72222 6.18075 8.72222C6.15756 8.72222 6.02483 9.1443 5.8857 9.66011Z" fill="#707882"/>
</svg>
