<svg width="8" height="15" viewBox="0 0 8 15" fill="none" xmlns="http://www.w3.org/2000/svg">
<path id="image 4 (Traced)" fill-rule="evenodd" clip-rule="evenodd" d="M4.74139 0.118363C4.14948 0.278572 3.76742 0.487671 3.33288 0.889182C2.88168 1.30606 2.64599 1.68284 2.42151 2.34578C2.28883 2.73748 2.25509 3.0355 2.22469 4.08122L2.18806 5.34371H1.23457C0.525318 5.34371 0.245033 5.37035 0.140505 5.44757C0.0102068 5.54396 0 5.64964 0 6.90767C0 7.92214 0.023671 8.28793 0.0940319 8.35907C0.15947 8.42531 0.494481 8.4619 1.19794 8.47954L2.20783 8.50486V11.6083C2.20783 14.6449 2.21101 14.715 2.35702 14.8627C2.49861 15.0058 2.57367 15.0124 3.83011 14.9907C4.81899 14.9738 5.18412 14.9426 5.27337 14.8676C5.38108 14.777 5.39288 14.4538 5.39288 11.5924V8.41762H6.5728C7.39397 8.41762 7.77915 8.39091 7.83959 8.32979C7.96207 8.20596 7.96207 5.55537 7.83959 5.43154C7.77907 5.37035 7.39281 5.34371 6.56745 5.34371H5.38217L5.40562 4.2849C5.42553 3.38688 5.4487 3.20625 5.55815 3.09559C5.66615 2.98646 5.86587 2.95792 6.77773 2.92125C7.59731 2.88825 7.88418 2.85187 7.93246 2.77488C8.03424 2.61233 8.01578 0.193747 7.91198 0.0887951C7.77965 -0.0449931 5.25803 -0.0214997 4.74139 0.118363Z" fill="#707882"/>
</svg>
