<svg width="14" height="14" viewBox="0 0 14 14" fill="none" xmlns="http://www.w3.org/2000/svg">
<path id="image 5 (Traced)" fill-rule="evenodd" clip-rule="evenodd" d="M3.21176 0.016945C2.90805 0.0696216 2.33959 0.27517 1.97647 0.463653C1.45249 0.735651 0.728274 1.45946 0.456125 1.98315C0.346321 2.19441 0.1988 2.5401 0.128251 2.75135L0 3.13545V7.00389V10.8723L0.128251 11.2564C0.359827 11.9501 0.619459 12.3725 1.12395 12.8767C1.62839 13.3809 2.05108 13.6404 2.7451 13.8718L3.12941 14H7H10.8706L11.2549 13.8718C11.9489 13.6404 12.3716 13.3809 12.876 12.8767C13.3805 12.3725 13.6402 11.9501 13.8717 11.2564L14 10.8723V7.00389V3.13545L13.8717 2.75135C13.6402 2.05772 13.3805 1.63527 12.876 1.13111C12.384 0.639297 11.9778 0.385956 11.2824 0.137223L10.9255 0.00953724L7.13726 0.0013617C5.05373 -0.00313776 3.28725 0.0038856 3.21176 0.016945ZM10.6895 1.30286C11.6691 1.50643 12.5005 2.33735 12.7042 3.31647C12.7445 3.51006 12.7647 4.74297 12.7647 7.00389C12.7647 9.26481 12.7445 10.4977 12.7042 10.6913C12.5005 11.6704 11.6691 12.5014 10.6895 12.7049C10.2874 12.7885 3.71264 12.7885 3.31053 12.7049C2.33086 12.5014 1.49948 11.6704 1.2958 10.6913C1.2555 10.4977 1.23529 9.26481 1.23529 7.00389C1.23529 4.74297 1.2555 3.51006 1.2958 3.31647C1.49388 2.36407 2.28271 1.55011 3.23016 1.32047C3.60964 1.22845 10.2561 1.21276 10.6895 1.30286ZM10.3155 2.44435C9.57216 2.89731 9.80006 4.04116 10.6527 4.13719C10.9633 4.17219 11.1256 4.12813 11.335 3.952C12.0084 3.38572 11.6308 2.33932 10.7533 2.34004C10.588 2.34015 10.4212 2.37987 10.3155 2.44435ZM6.39608 3.41672C5.97613 3.49766 5.35289 3.75446 4.99394 3.99447C4.3193 4.4454 3.83584 5.07225 3.55452 5.86064C3.42665 6.21906 3.41095 6.34417 3.41095 7.00389C3.41095 7.66361 3.42665 7.78872 3.55452 8.14714C3.76013 8.72329 4.00762 9.11255 4.44893 9.55355C4.89017 9.9946 5.27965 10.242 5.85612 10.4475C6.21474 10.5753 6.33991 10.5909 7 10.5909C7.66009 10.5909 7.78526 10.5753 8.14388 10.4475C8.72035 10.242 9.10983 9.9946 9.55107 9.55355C9.99238 9.11255 10.2399 8.72329 10.4455 8.14714C10.5733 7.78872 10.5891 7.66361 10.5891 7.00389C10.5891 6.34417 10.5733 6.21906 10.4455 5.86064C10.1644 5.0728 9.6807 4.4454 9.00749 3.9954C8.41477 3.59917 7.88348 3.43264 7.13726 3.40921C6.8051 3.39878 6.47157 3.40213 6.39608 3.41672ZM7.65196 4.7478C8.10265 4.88799 8.4101 5.07714 8.7125 5.40022C9.41349 6.14927 9.55179 7.18755 9.07513 8.12283C8.92827 8.41096 8.51162 8.84774 8.22151 9.01767C7.24569 9.58921 6.04981 9.42208 5.2875 8.60756C4.4268 7.68792 4.4268 6.31986 5.2875 5.40022C5.89916 4.7467 6.82613 4.49089 7.65196 4.7478Z" fill="#707882"/>
</svg>
