<svg width="14" height="16" viewBox="0 0 14 16" fill="none" xmlns="http://www.w3.org/2000/svg">
<path id="image 3 (Traced)" fill-rule="evenodd" clip-rule="evenodd" d="M1.23972 0.0657399C-0.0237735 0.461085 -0.420941 2.24053 0.5156 3.3101C1.38642 4.30461 2.87331 3.86792 3.27089 2.50087C3.67849 1.09934 2.48998 -0.325557 1.23972 0.0657399ZM9.7326 5.12971C9.50395 5.1895 9.15368 5.33276 8.95421 5.44822C8.55377 5.67999 7.89865 6.34549 7.81555 6.60498C7.78071 6.71358 7.75051 6.51498 7.72822 6.0315L7.69413 5.29188H6.3307H4.96727L4.94975 10.6459L4.93223 16L6.38135 15.979L7.83047 15.958L7.86456 12.6881C7.89796 9.48209 7.90171 9.41062 8.05537 9.02984C8.36139 8.27169 8.76293 7.98238 9.51329 7.97958C10.2735 7.9767 10.6151 8.2284 10.8779 8.98484C11.0229 9.40253 11.0293 9.5355 11.0543 12.6686L11.0802 15.919H12.5401H14L13.9989 12.9411C13.9975 8.90714 13.9125 7.87954 13.4951 6.84897C13.1723 6.05213 12.5261 5.45125 11.7265 5.20414C11.1931 5.03932 10.218 5.00289 9.7326 5.12971ZM0.229348 10.6249V16L1.67799 15.979L3.12664 15.958V10.6249V5.29188L1.67799 5.27086L0.229348 5.24984V10.6249Z" fill="#707882"/>
</svg>
