<svg width="12" height="15" viewBox="0 0 12 15" fill="none" xmlns="http://www.w3.org/2000/svg">
<path fill-rule="evenodd" clip-rule="evenodd" d="M5.39692 0.539917C4.54852 0.66327 3.69588 1.10124 3.07983 1.73012C2.81494 2.00051 2.6833 2.17173 2.4818 2.50785C2.1319 3.09163 1.92783 3.80067 1.92113 4.45589C1.91886 4.6805 1.92822 4.7474 1.97477 4.83864C2.14424 5.17082 2.58024 5.26573 2.86362 5.03215C3.02242 4.90125 3.06539 4.78698 3.09832 4.40784C3.14851 3.82956 3.29246 3.39963 3.58101 2.96595C3.97098 2.37987 4.57524 1.9518 5.28188 1.76103C5.51784 1.69733 5.59751 1.68937 5.99864 1.68937C6.39977 1.68937 6.47945 1.69733 6.7154 1.76103C7.75652 2.04211 8.52355 2.80551 8.8202 3.85589C8.87558 4.05197 8.88015 4.13879 8.89052 5.1938L8.90162 6.32202L5.5424 6.32224C3.38203 6.32235 2.11973 6.33244 2.0054 6.3505C1.25251 6.46928 0.625654 6.95214 0.333737 7.63815C0.162082 8.0415 0.164735 8.00427 0.152838 10.1922C0.141104 12.3447 0.153576 12.6543 0.266317 13.0096C0.451155 13.5924 0.928949 14.1111 1.49189 14.3402C1.90048 14.5065 1.71688 14.5 5.99864 14.5C9.39834 14.5 9.93863 14.4945 10.114 14.4583C11.0482 14.2653 11.731 13.4967 11.8249 12.5323C11.8604 12.1673 11.8589 8.64067 11.823 8.28735C11.7299 7.3694 11.1078 6.63456 10.2235 6.39806L10.1087 6.36737L10.0931 5.27117C10.074 3.92878 10.0367 3.66835 9.77004 3.0154C9.49735 2.34779 9.032 1.75498 8.42134 1.29729C8.09242 1.05075 7.54655 0.777268 7.1543 0.662476C6.61111 0.50354 5.95964 0.45811 5.39692 0.539917ZM9.85729 7.52588C10.1725 7.58564 10.4279 7.78199 10.5616 8.06712L10.6346 8.22292V10.4247V12.6264L10.5675 12.7632C10.4685 12.965 10.2911 13.1404 10.094 13.2314L9.92351 13.3102H5.99864H2.07378L1.90327 13.2314C1.70621 13.1404 1.52878 12.965 1.42977 12.7632L1.36265 12.6264V10.4247V8.22292L1.43568 8.06712C1.56461 7.79206 1.82675 7.5849 2.11842 7.5276C2.29376 7.49314 9.67598 7.4915 9.85729 7.52588ZM5.36957 8.09013C5.08668 8.14264 4.83218 8.27781 4.6311 8.48234C4.45621 8.66023 4.34905 8.84551 4.29011 9.07175C4.22906 9.30615 4.22906 10.9415 4.29011 11.1759C4.40299 11.6092 4.73205 11.9536 5.18375 12.111C5.30924 12.1547 5.41787 12.1615 5.99864 12.1615C6.72607 12.1615 6.79683 12.1502 7.08705 11.989C7.25094 11.898 7.47029 11.6801 7.57083 11.5084C7.73289 11.2317 7.74911 11.1057 7.74911 10.1238C7.74911 9.34518 7.74284 9.21111 7.69905 9.05318C7.58073 8.62653 7.27388 8.30442 6.82897 8.13991C6.71778 8.0988 6.59336 8.08969 6.06702 8.08411C5.72103 8.08044 5.40718 8.08315 5.36957 8.09013ZM6.51221 9.29116C6.57266 9.33348 6.57301 9.33837 6.57301 10.1238C6.57301 10.9092 6.57266 10.9141 6.51221 10.9565C6.46315 10.9908 6.36419 10.999 5.99864 10.999C5.6331 10.999 5.53414 10.9908 5.48507 10.9565C5.42463 10.9141 5.42427 10.9092 5.42427 10.1238C5.42427 9.33837 5.42463 9.33348 5.48507 9.29116C5.53414 9.25678 5.6331 9.24858 5.99864 9.24858C6.36419 9.24858 6.46315 9.25678 6.51221 9.29116Z" fill="white"/>
</svg>
