<svg width="84" height="43" viewBox="0 0 84 43" fill="none" xmlns="http://www.w3.org/2000/svg">
<path d="M68.775 28.775C65.8729 35.8718 59.091 40.85 51.1875 40.85C43.284 40.85 36.502 35.8718 33.6 28.775" stroke="url(#paint0_linear_1571_15)" stroke-width="3.05" stroke-linecap="round"/>
<path d="M68.775 14.075C65.8729 6.9782 59.091 2 51.1875 2C43.284 2 36.502 6.9782 33.6 14.075" stroke="url(#paint1_linear_1571_15)" stroke-width="3.05" stroke-linecap="round"/>
<path d="M3.44011 26.086C2.92038 26.086 2.44603 26.0046 2.01704 25.8418C1.59631 25.6709 1.23745 25.4267 0.940462 25.1093C0.643474 24.7919 0.412483 24.4094 0.24749 23.9618C0.0824967 23.506 0 22.9892 0 22.4114V17.1497H1.67056V22.509C1.67056 22.802 1.70768 23.0706 1.78193 23.3147C1.85618 23.5589 1.96755 23.7705 2.11604 23.9496C2.26453 24.1286 2.45015 24.271 2.67289 24.3768C2.89563 24.4745 3.15137 24.5233 3.44011 24.5233C3.7371 24.5233 3.99696 24.4745 4.21971 24.3768C4.44245 24.271 4.62806 24.1286 4.77656 23.9496C4.92505 23.7705 5.03642 23.5589 5.11067 23.3147C5.18492 23.0706 5.22204 22.802 5.22204 22.509V17.1497H6.8926V22.4114C6.8926 22.9566 6.8101 23.4572 6.64511 23.9129C6.48836 24.3606 6.25737 24.7471 5.95214 25.0727C5.65515 25.3901 5.29216 25.6383 4.86318 25.8174C4.44245 25.9964 3.96809 26.086 3.44011 26.086Z" fill="#FBFBFB"/>
<path d="M8.47586 17.1497H11.7056C12.1511 17.1497 12.5553 17.2189 12.9183 17.3573C13.2813 17.4956 13.5907 17.6869 13.8464 17.931C14.1104 18.1752 14.3125 18.4682 14.4527 18.81C14.593 19.1437 14.6631 19.5099 14.6631 19.9087C14.6631 20.2017 14.6136 20.4784 14.5146 20.7389C14.4156 20.9912 14.2795 21.2231 14.1063 21.4347C13.933 21.6382 13.7309 21.8213 13.4999 21.9841C13.2689 22.1387 13.0255 22.2608 12.7698 22.3503L12.7574 22.4358L15.1333 25.793V25.8906H13.2153L10.926 22.6067H10.1464V25.8906H8.47586V17.1497ZM11.6932 21.0929C12.0727 21.0929 12.3821 20.979 12.6213 20.7511C12.8688 20.5232 12.9925 20.2343 12.9925 19.8843C12.9925 19.7297 12.9637 19.5791 12.9059 19.4326C12.8564 19.2861 12.7781 19.1559 12.6708 19.042C12.5636 18.928 12.4274 18.8385 12.2625 18.7734C12.1057 18.7001 11.9242 18.6635 11.718 18.6635H10.1464V21.0929H11.6932Z" fill="#FBFBFB"/>
<path d="M23.8017 23.9781C23.4293 24.6264 22.9255 25.1505 22.2902 25.5503C21.6659 25.9501 20.8992 26.15 19.9901 26.15C19.3768 26.15 18.8072 26.0473 18.2815 25.842C17.7667 25.6259 17.3177 25.3287 16.9343 24.9506C16.551 24.5724 16.2498 24.1293 16.0307 23.6215C15.8226 23.1028 15.7186 22.5356 15.7186 21.9196C15.7186 21.347 15.8226 20.8067 16.0307 20.2988C16.2388 19.7802 16.5291 19.3318 16.9015 18.9536C17.2738 18.5646 17.712 18.2566 18.2158 18.0297C18.7306 17.8028 19.2946 17.6893 19.908 17.6893C20.5542 17.6893 21.1292 17.7974 21.6331 18.0135C22.1369 18.2188 22.5586 18.5106 22.8981 18.8887C23.2376 19.2561 23.495 19.6937 23.6703 20.2016C23.8455 20.7094 23.9331 21.2605 23.9331 21.8548C23.9331 21.9305 23.9331 21.9953 23.9331 22.0493C23.9222 22.1141 23.9167 22.1736 23.9167 22.2276C23.9058 22.2816 23.9003 22.3411 23.9003 22.4059H17.8379C17.8817 22.7301 17.9693 23.011 18.1008 23.2487C18.2432 23.4756 18.4129 23.6701 18.6101 23.8322C18.8182 23.9835 19.0427 24.0969 19.2837 24.1726C19.5246 24.2374 19.7711 24.2698 20.023 24.2698C20.5159 24.2698 20.9211 24.1618 21.2388 23.9457C21.5673 23.7187 21.8247 23.4378 22.0109 23.1028L23.8017 23.9781ZM21.8466 20.8985C21.8357 20.7581 21.7864 20.6014 21.6988 20.4285C21.6221 20.2556 21.5016 20.0935 21.3373 19.9423C21.184 19.791 20.9868 19.6667 20.7459 19.5695C20.5159 19.4722 20.2366 19.4236 19.908 19.4236C19.448 19.4236 19.0427 19.5533 18.6922 19.8126C18.3417 20.0719 18.0953 20.4339 17.9529 20.8985H21.8466Z" fill="#FBFBFB"/>
<path d="M25.3077 25.8906V14.2857H27.4599V25.8906H25.3077Z" fill="#FBFBFB"/>
<path d="M33.034 17.6893C33.6583 17.6893 34.2279 17.7974 34.7426 18.0135C35.2684 18.2188 35.7174 18.5106 36.0898 18.8887C36.4732 19.2561 36.7689 19.6991 36.977 20.2178C37.1961 20.7365 37.3056 21.3037 37.3056 21.9196C37.3056 22.5356 37.1961 23.1028 36.977 23.6215C36.7689 24.1402 36.4732 24.5886 36.0898 24.9668C35.7174 25.3341 35.2684 25.6259 34.7426 25.842C34.2279 26.0473 33.6583 26.15 33.034 26.15C32.4097 26.15 31.8347 26.0473 31.3089 25.842C30.7942 25.6259 30.3451 25.3341 29.9617 24.9668C29.5894 24.5886 29.2936 24.1402 29.0746 23.6215C28.8665 23.1028 28.7624 22.5356 28.7624 21.9196C28.7624 21.3037 28.8665 20.7365 29.0746 20.2178C29.2936 19.6991 29.5894 19.2561 29.9617 18.8887C30.3451 18.5106 30.7942 18.2188 31.3089 18.0135C31.8347 17.7974 32.4097 17.6893 33.034 17.6893ZM33.034 24.1888C33.3078 24.1888 33.5707 24.1402 33.8226 24.0429C34.0855 23.9349 34.3155 23.7836 34.5126 23.5891C34.7098 23.3946 34.8631 23.1569 34.9726 22.8759C35.0931 22.595 35.1534 22.2762 35.1534 21.9196C35.1534 21.5631 35.0931 21.2443 34.9726 20.9634C34.8631 20.6824 34.7098 20.4447 34.5126 20.2502C34.3155 20.0557 34.0855 19.9099 33.8226 19.8126C33.5707 19.7045 33.3078 19.6505 33.034 19.6505C32.7492 19.6505 32.4809 19.7045 32.229 19.8126C31.9771 19.9099 31.7525 20.0557 31.5554 20.2502C31.3582 20.4447 31.1994 20.6824 31.0789 20.9634C30.9694 21.2443 30.9146 21.5631 30.9146 21.9196C30.9146 22.2762 30.9694 22.595 31.0789 22.8759C31.1994 23.1569 31.3582 23.3946 31.5554 23.5891C31.7525 23.7836 31.9771 23.9349 32.229 24.0429C32.4809 24.1402 32.7492 24.1888 33.034 24.1888Z" fill="#FBFBFB"/>
<path d="M46.328 23.8646C45.9775 24.5345 45.4847 25.0856 44.8494 25.5178C44.2251 25.9392 43.442 26.15 42.5 26.15C41.8757 26.15 41.3007 26.0473 40.775 25.842C40.2602 25.6259 39.8111 25.3287 39.4278 24.9506C39.0554 24.5724 38.7597 24.1293 38.5406 23.6215C38.3325 23.1028 38.2284 22.5356 38.2284 21.9196C38.2284 21.3037 38.3325 20.7365 38.5406 20.2178C38.7597 19.6991 39.0554 19.2561 39.4278 18.8887C39.8111 18.5106 40.2602 18.2188 40.775 18.0135C41.3007 17.7974 41.8757 17.6893 42.5 17.6893C43.431 17.6893 44.2141 17.9001 44.8494 18.3215C45.4847 18.7429 45.9502 19.2885 46.2459 19.9585L44.2744 20.7689C44.0882 20.4015 43.8472 20.126 43.5515 19.9423C43.2667 19.7478 42.9053 19.6505 42.4672 19.6505C42.1824 19.6505 41.9141 19.7045 41.6621 19.8126C41.4102 19.9207 41.1857 20.0719 40.9885 20.2664C40.8023 20.4609 40.6545 20.6986 40.545 20.9796C40.4354 21.2605 40.3807 21.5739 40.3807 21.9196C40.3807 22.2654 40.4354 22.5788 40.545 22.8597C40.6545 23.1407 40.8023 23.3784 40.9885 23.5729C41.1857 23.7674 41.4102 23.9186 41.6621 24.0267C41.9141 24.1348 42.1824 24.1888 42.4672 24.1888C42.9162 24.1888 43.2941 24.0915 43.6008 23.897C43.9184 23.6917 44.1703 23.4 44.3565 23.0218L46.328 23.8646Z" fill="#FBFBFB"/>
<path d="M52.5225 25.0478H52.391C52.1391 25.3504 51.8324 25.6097 51.471 25.8258C51.1205 26.0419 50.666 26.15 50.1074 26.15C49.6912 26.15 49.2969 26.0797 48.9245 25.9392C48.563 25.8096 48.2454 25.6259 47.9716 25.3882C47.6978 25.1505 47.4842 24.8641 47.3308 24.5291C47.1775 24.1942 47.1008 23.8268 47.1008 23.427C47.1008 23.0164 47.183 22.649 47.3473 22.3249C47.5116 21.9899 47.7416 21.7035 48.0373 21.4658C48.333 21.2281 48.678 21.0498 49.0723 20.931C49.4776 20.8013 49.9157 20.7365 50.3867 20.7365C50.9124 20.7365 51.345 20.7797 51.6846 20.8661C52.0241 20.9418 52.3034 21.0228 52.5225 21.1092V20.8661C52.5225 20.4447 52.3527 20.0989 52.0132 19.8288C51.6736 19.5479 51.2519 19.4074 50.7481 19.4074C50.0033 19.4074 49.3735 19.7154 48.8588 20.3313L47.298 19.2777C48.1523 18.2188 49.3188 17.6893 50.7974 17.6893C52.046 17.6893 52.9989 17.9811 53.6561 18.5646C54.3133 19.1373 54.6418 19.9909 54.6418 21.1255V25.8906H52.5225V25.0478ZM52.5225 22.6652C52.2706 22.5464 52.0077 22.4545 51.7339 22.3897C51.471 22.314 51.1808 22.2762 50.8631 22.2762C50.3483 22.2762 49.9486 22.3897 49.6638 22.6166C49.39 22.8327 49.2531 23.1028 49.2531 23.427C49.2531 23.7512 49.3845 24.0105 49.6474 24.205C49.9212 24.3995 50.2333 24.4967 50.5838 24.4967C50.8686 24.4967 51.1315 24.4481 51.3724 24.3509C51.6134 24.2428 51.816 24.1077 51.9803 23.9457C52.1556 23.7728 52.287 23.5783 52.3746 23.3622C52.4732 23.1353 52.5225 22.9029 52.5225 22.6652Z" fill="#FBFBFB"/>
<path d="M57.0798 19.764H55.6669V17.9487H57.0798V15.5175H59.232V17.9487H61.2035V19.764H59.232V22.8435C59.232 23.0272 59.2484 23.2001 59.2813 23.3622C59.3251 23.5134 59.4018 23.6431 59.5113 23.7512C59.6646 23.924 59.8837 24.0105 60.1685 24.0105C60.3546 24.0105 60.5025 23.9943 60.612 23.9619C60.7216 23.9186 60.8256 23.8646 60.9242 23.7998L61.5321 25.6637C61.2802 25.7826 61.0063 25.869 60.7106 25.923C60.4258 25.9879 60.1082 26.0203 59.7577 26.0203C59.3525 26.0203 58.9855 25.9609 58.657 25.842C58.3393 25.7123 58.071 25.5394 57.8519 25.3233C57.3372 24.8371 57.0798 24.1456 57.0798 23.2487V19.764Z" fill="#FBFBFB"/>
<path d="M64.0663 16.7979C63.8801 16.7979 63.6994 16.7655 63.5241 16.7007C63.3598 16.625 63.212 16.5278 63.0805 16.4089C62.96 16.2792 62.8615 16.1334 62.7848 15.9713C62.7191 15.8092 62.6862 15.6309 62.6862 15.4364C62.6862 15.2419 62.7191 15.0636 62.7848 14.9016C62.8615 14.7395 62.96 14.599 63.0805 14.4802C63.212 14.3505 63.3598 14.2532 63.5241 14.1884C63.6994 14.1128 63.8801 14.075 64.0663 14.075C64.4496 14.075 64.7782 14.21 65.052 14.4802C65.3258 14.7395 65.4628 15.0582 65.4628 15.4364C65.4628 15.8146 65.3258 16.1388 65.052 16.4089C64.7782 16.6682 64.4496 16.7979 64.0663 16.7979ZM62.9984 25.8906V17.9487H65.1506V25.8906H62.9984Z" fill="#FBFBFB"/>
<path d="M70.85 17.6893C71.4743 17.6893 72.0438 17.7974 72.5586 18.0135C73.0844 18.2188 73.5334 18.5106 73.9058 18.8887C74.2892 19.2561 74.5849 19.6991 74.793 20.2178C75.012 20.7365 75.1216 21.3037 75.1216 21.9196C75.1216 22.5356 75.012 23.1028 74.793 23.6215C74.5849 24.1402 74.2892 24.5886 73.9058 24.9668C73.5334 25.3341 73.0844 25.6259 72.5586 25.842C72.0438 26.0473 71.4743 26.15 70.85 26.15C70.2257 26.15 69.6507 26.0473 69.1249 25.842C68.6101 25.6259 68.1611 25.3341 67.7777 24.9668C67.4053 24.5886 67.1096 24.1402 66.8905 23.6215C66.6824 23.1028 66.5784 22.5356 66.5784 21.9196C66.5784 21.3037 66.6824 20.7365 66.8905 20.2178C67.1096 19.6991 67.4053 19.2561 67.7777 18.8887C68.1611 18.5106 68.6101 18.2188 69.1249 18.0135C69.6507 17.7974 70.2257 17.6893 70.85 17.6893ZM70.85 24.1888C71.1238 24.1888 71.3867 24.1402 71.6386 24.0429C71.9015 23.9349 72.1315 23.7836 72.3286 23.5891C72.5258 23.3946 72.6791 23.1569 72.7886 22.8759C72.9091 22.595 72.9693 22.2762 72.9693 21.9196C72.9693 21.5631 72.9091 21.2443 72.7886 20.9634C72.6791 20.6824 72.5258 20.4447 72.3286 20.2502C72.1315 20.0557 71.9015 19.9099 71.6386 19.8126C71.3867 19.7045 71.1238 19.6505 70.85 19.6505C70.5652 19.6505 70.2969 19.7045 70.045 19.8126C69.793 19.9099 69.5685 20.0557 69.3714 20.2502C69.1742 20.4447 69.0154 20.6824 68.8949 20.9634C68.7854 21.2443 68.7306 21.5631 68.7306 21.9196C68.7306 22.2762 68.7854 22.595 68.8949 22.8759C69.0154 23.1569 69.1742 23.3946 69.3714 23.5891C69.5685 23.7836 69.793 23.9349 70.045 24.0429C70.2969 24.1402 70.5652 24.1888 70.85 24.1888Z" fill="#FBFBFB"/>
<path d="M78.3648 18.986H78.4962C78.7481 18.5862 79.0877 18.2728 79.5148 18.0459C79.942 17.8082 80.4294 17.6893 80.977 17.6893C81.4809 17.6893 81.9244 17.7704 82.3078 17.9325C82.6911 18.0945 83.0033 18.3269 83.2443 18.6294C83.4962 18.9212 83.6824 19.2777 83.8028 19.6991C83.9343 20.1098 84 20.569 84 21.0768V25.8906H81.8478V21.3362C81.8478 20.7635 81.7163 20.3421 81.4535 20.0719C81.2016 19.791 80.8292 19.6505 80.3363 19.6505C80.0406 19.6505 79.7777 19.7154 79.5477 19.845C79.3286 19.9639 79.137 20.1314 78.9727 20.3475C78.8193 20.5528 78.6988 20.8013 78.6112 21.093C78.5346 21.374 78.4962 21.6765 78.4962 22.0007V25.8906H76.344V17.9487H78.3648V18.986Z" fill="#FBFBFB"/>
<defs>
<linearGradient id="paint0_linear_1571_15" x1="32.4706" y1="40.8235" x2="71.2941" y2="40.8235" gradientUnits="userSpaceOnUse">
<stop stop-color="#95DC78"/>
<stop offset="0.9999" stop-color="#95DC78" stop-opacity="0.35"/>
<stop offset="1" stop-color="#E2F6DA"/>
</linearGradient>
<linearGradient id="paint1_linear_1571_15" x1="30.45" y1="14.075" x2="68.775" y2="14.075" gradientUnits="userSpaceOnUse">
<stop stop-color="#FFBB8A" stop-opacity="0.29"/>
<stop offset="1" stop-color="#FFBB8A"/>
</linearGradient>
</defs>
</svg>
